<svg width="575" height="411.99999999999994" xmlns="http://www.w3.org/2000/svg" fill="none">
 <defs>
  <linearGradient y2="1.67023" x2="1.1076" y1="-0.2727" x1="0.07802" id="a">
   <stop stop-color="#fff"/>
   <stop stop-color="#EEE" offset="1"/>
  </linearGradient>
  <linearGradient y2="0.48695" x2="-1.08754" y1="0.50688" x1="1.56066" id="b">
   <stop stop-color="#fff"/>
   <stop stop-color="#EEE" offset="1"/>
  </linearGradient>
  <linearGradient y2="-1.3163" x2="1.61786" y1="1.70436" x1="-0.264" id="c">
   <stop stop-color="#fff"/>
   <stop stop-color="#EEE" offset="1"/>
  </linearGradient>
 </defs>
 <g>
  <title>Layer 1</title>
  <path id="svg_2" fill="url(#a)" d="m529.6127,77.00117c-25.515,-12.392 -52.382,2.161 -89.628,33.807c-28.008,23.806 -53.829,45.113 -72.469,82.387c-13.052,26.081 -18.91,53.156 -20.582,76.657c-1.816,25.462 -7.238,56.852 14.631,69.073c30.046,16.783 116.496,-11.629 161.653,-94.962c49.597,-91.553 31.342,-154.858 6.395,-166.962z"/>
  <path id="svg_3" fill="url(#b)" d="m266.5597,43.76617c18.902,17.228 15.689,44.591 1.629,86.356c-10.58,31.409 -19.798,60.152 -44.787,88.214c-17.482,19.644 -38.2,33.595 -57.323,42.847c-20.718,10.027 -45.195,25.054 -62.735,10.822c-24.093,-19.556 -29.179,-101.448 25.525,-167.105c60.104,-72.122 119.219,-77.982 137.691,-61.134z"/>
  <path id="svg_4" fill="url(#c)" d="m407.9737,96.63917c-31.536,35.175 -93.709,30.904 -93.709,30.904s-11.004,-61.303 20.564,-96.459c31.537,-35.175 93.679,-30.923 93.679,-30.923s11.003,61.304 -20.534,96.478z"/>
  <path id="svg_5" stroke-linejoin="round" stroke-linecap="round" stroke-width="22.25" stroke="#ffaf4d" fill="#ffaf4d" d="m480.2477,142.02617l0,170.299c0,20.909 -16.935,37.845 -37.844,37.845l-264.91,0c-20.909,0 -37.845,-16.936 -37.845,-37.845l0,-170.299c0,-20.909 16.936,-37.844 37.845,-37.844l37.844,0l27.664,-47.381a18.923,18.923 0 0 1 16.349,-9.385l100.363,0a18.942,18.942 0 0 1 16.216,9.158l28.629,47.608l37.845,0c20.909,0 37.844,16.935 37.844,37.844z" clip-rule="evenodd" fill-rule="evenodd"/>
  <path id="svg_6" fill="#fff" d="m354.5217,174.44417c23.912,23.663 23.912,62.028 0,85.692c-23.912,23.663 -62.682,23.663 -86.594,0c-23.912,-23.664 -23.912,-62.029 0,-85.692c23.912,-23.663 62.682,-23.663 86.594,0zm47.551,-38.435c4.732,4.732 4.732,12.405 0,17.138c-4.733,4.733 -12.406,4.733 -17.139,0c-4.732,-4.733 -4.732,-12.406 0,-17.138c4.733,-4.733 12.406,-4.733 17.139,0z" clip-rule="evenodd" fill-rule="evenodd"/>
  <path id="svg_7" fill="#E1E4E5" d="m554.3437,102.70017l0,4.166l4.361,0c1.82,0 3.315,1.428 3.315,3.167c0,1.739 -1.495,3.167 -3.315,3.167l-4.361,0l0,4.166c0,1.738 -1.495,3.167 -3.315,3.167c-1.82,0 -3.315,-1.429 -3.315,-3.167l0,-4.149l-4.379,0c-1.82,0 -3.315,-1.428 -3.315,-3.167c0,-1.738 1.495,-3.167 3.315,-3.167l4.361,0l0,-4.183c0,-1.738 1.495,-3.167 3.333,-3.167c1.82,0 3.315,1.429 3.315,3.167zm-29.14,-42.793l0,5.752l6.144,0c2.565,0 4.672,1.973 4.672,4.374s-2.107,4.374 -4.672,4.374l-6.144,0l0,5.752c0,2.401 -2.107,4.374 -4.671,4.374c-2.565,0 -4.672,-1.973 -4.672,-4.374l0,-5.728l-6.169,0c-2.565,0 -4.672,-1.973 -4.672,-4.374s2.107,-4.374 4.672,-4.374l6.144,0l0,-5.776c0,-2.401 2.107,-4.374 4.697,-4.374c2.564,0 4.671,1.973 4.671,4.374zm-54.535,-23.889l0,8.53l8.72,0c3.64,0 6.631,2.925 6.631,6.485c0,3.56 -2.991,6.485 -6.631,6.485l-8.72,0l0,8.53c0,3.56 -2.991,6.485 -6.631,6.485s-6.631,-2.925 -6.631,-6.485l0,-8.495l-8.756,0c-3.64,0 -6.631,-2.925 -6.631,-6.485c0,-3.56 2.991,-6.485 6.631,-6.485l8.72,0l0,-8.565c0,-3.56 2.991,-6.485 6.667,-6.485c3.64,0 6.631,2.925 6.631,6.485z" clip-rule="evenodd" fill-rule="evenodd"/>
  <circle cx="6" cy="6.05149" id="svg_8" fill="#E1E4E5" r="6"/>
  <path id="svg_9" fill="#E1E4E5" d="m529.6497,185.53317l-0.254,0c-1.506,19.205 -17.376,19.501 -17.376,19.501s17.5,0.308 17.5,22.499c0,-22.191 17.5,-22.499 17.5,-22.499s-15.863,-0.296 -17.37,-19.501zm-337.044,-137l-0.167,0c-0.99,12.346 -11.419,12.536 -11.419,12.536s11.5,0.198 11.5,14.464c0,-14.266 11.5,-14.464 11.5,-14.464s-10.425,-0.19 -11.414,-12.536z"/>
  <path id="svg_10" fill="#fff" d="m411.6977,317.01917l2.972,0c0.718,0 1.297,0.585 1.297,1.298l0,2.972c0,0.718 -0.585,1.297 -1.297,1.297l-2.972,0a1.303,1.303 0 0 1 -1.298,-1.297l0,-2.972a1.295,1.295 0 0 1 1.298,-1.298zm10.303,0l2.972,0c0.713,0 1.297,0.585 1.297,1.298l0,2.972c0,0.718 -0.584,1.297 -1.297,1.297l-2.972,0a1.303,1.303 0 0 1 -1.297,-1.297l0,-2.972c0,-0.713 0.585,-1.298 1.297,-1.298zm10.31,0l2.972,0c0.713,0 1.298,0.585 1.298,1.298l0,2.972c0,0.718 -0.585,1.297 -1.298,1.297l-2.972,0a1.303,1.303 0 0 1 -1.297,-1.297l0,-2.972a1.295,1.295 0 0 1 1.297,-1.298zm10.305,0l2.972,0c0.713,0 1.297,0.585 1.297,1.298l0,2.972c0,0.718 -0.584,1.297 -1.297,1.297l-2.972,0a1.303,1.303 0 0 1 -1.303,-1.297l0,-2.972a1.312,1.312 0 0 1 1.303,-1.298zm10.305,0l2.972,0c0.719,0 1.303,0.585 1.303,1.298l0,2.972a1.3,1.3 0 0 1 -1.303,1.297l-2.972,0a1.302,1.302 0 0 1 -1.297,-1.297l0,-2.972c0,-0.713 0.584,-1.298 1.297,-1.298zm-30.542,11.236l2.972,0c0.713,0 1.297,0.585 1.297,1.298l0,2.978c0,0.712 -0.584,1.297 -1.297,1.297l-2.972,0a1.299,1.299 0 0 1 -1.297,-1.297l0,-2.972a1.296,1.296 0 0 1 1.297,-1.304zm10.304,0l2.972,0c0.713,0 1.298,0.585 1.298,1.298l0,2.978c0,0.712 -0.585,1.297 -1.298,1.297l-2.972,0a1.303,1.303 0 0 1 -1.297,-1.297l0,-2.972a1.296,1.296 0 0 1 1.297,-1.304zm10.305,0l2.972,0c0.719,0 1.303,0.585 1.303,1.298l0,2.978c0,0.712 -0.584,1.297 -1.303,1.297l-2.972,0a1.302,1.302 0 0 1 -1.297,-1.297l0,-2.972c0,-0.719 0.584,-1.304 1.297,-1.304zm-10.677,-23.306l2.972,0c0.713,0 1.298,0.584 1.298,1.297l0,2.972c0,0.718 -0.585,1.297 -1.298,1.297l-2.972,0a1.303,1.303 0 0 1 -1.297,-1.297l0,-2.972a1.294,1.294 0 0 1 1.297,-1.297zm10.305,0l2.972,0c0.713,0 1.297,0.584 1.297,1.297l0,2.972c0,0.718 -0.584,1.297 -1.297,1.297l-2.972,0a1.303,1.303 0 0 1 -1.303,-1.297l0,-2.972a1.311,1.311 0 0 1 1.303,-1.297z" clip-rule="evenodd" fill-rule="evenodd"/>
  <rect id="svg_11" fill="#E1E4E5" rx="2.759" height="5.517" width="47.355" y="168.78317" x="77.0987"/>
  <rect id="svg_12" fill="#E1E4E5" rx="2.759" height="5.517" width="17.583" y="168.65417" x="58.9437"/>
  <circle id="svg_13" fill="#E1E4E5" r="9.036" cy="231.52417" cx="90.7557"/>
  <path id="svg_14" fill="#E1E4E5" d="m100.3287,306.70717a46.25,46.25 0 0 1 2.326,0.08a37.422,37.422 0 0 0 -37.21,-33.412a37.424,37.424 0 0 0 -10.729,73.28c1.257,-8.676 4.888,-16.919 10.616,-23.711c8.758,-10.385 21.545,-16.335 34.991,-16.237l0.006,0zm-0.061,7c0.828,0.007 1.656,0.041 2.481,0.102a37.419,37.419 0 0 1 -37.304,34.416c-1.293,0 -2.579,-0.067 -3.853,-0.199c1.022,-7.538 4.141,-14.699 9.091,-20.569c7.438,-8.82 18.256,-13.832 29.585,-13.75zm-46.11,-9.442a8.316,8.316 0 0 0 8.316,-8.316a8.316,8.316 0 0 0 -8.316,-8.317a8.316,8.316 0 0 0 -8.317,8.317a8.316,8.316 0 0 0 8.317,8.316zm518.77,10.823c0.573,0.005 1.146,0.024 1.719,0.056a29.293,29.293 0 0 0 -29.028,-25.381a29.289,29.289 0 0 0 -9.131,57.119c1.02,-6.883 3.913,-13.422 8.462,-18.816c6.998,-8.298 17.219,-13.056 27.971,-12.978l0.007,0zm-0.061,7a29.38,29.38 0 0 1 1.876,0.077a29.29,29.29 0 0 1 -31.38,26.09c0.786,-5.747 3.166,-11.204 6.938,-15.676c5.677,-6.732 13.929,-10.553 22.566,-10.491zm-36.081,-8.15a6.509,6.509 0 1 0 0,-13.018a6.509,6.509 0 0 0 0,13.018zm-420.09,-255.234c0.574,0.005 1.147,0.024 1.719,0.056a29.289,29.289 0 0 0 -49.739,-16.804a29.29,29.29 0 0 0 11.58,48.542c1.02,-6.884 3.913,-13.422 8.462,-18.816c6.998,-8.298 17.219,-13.056 27.971,-12.978l0.007,0zm-0.061,7c0.626,0.005 1.252,0.031 1.876,0.076a29.287,29.287 0 0 1 -31.38,26.09c0.786,-5.747 3.166,-11.203 6.938,-15.675c5.677,-6.733 13.929,-10.553 22.566,-10.491zm-36.08,-8.15a6.509,6.509 0 0 0 6.508,-6.509a6.509,6.509 0 1 0 -6.508,6.509z" clip-rule="evenodd" fill-rule="evenodd"/>
  <path id="svg_15" fill="#E1E4E5" d="m351.6497,369.53317l-0.254,0c-1.506,19.205 -17.376,19.501 -17.376,19.501s17.5,0.308 17.5,22.499c0,-22.191 17.5,-22.499 17.5,-22.499s-15.863,-0.296 -17.37,-19.501zm-337.044,-137l-0.167,0c-0.99,12.346 -11.419,12.536 -11.419,12.536s11.5,0.198 11.5,14.464c0,-14.266 11.5,-14.464 11.5,-14.464s-10.425,-0.19 -11.414,-12.536z"/>
 </g>
</svg>