<svg width="207" height="192" xmlns="http://www.w3.org/2000/svg" class="illustration styles_illustrationTablet__1DWOa">
 <g id="Layer_1">
  <title>Layer 1</title>
  <g>
   <g data-name="#296_empty_inbox_flatline" id="svg_1">
    <path fill="#e6e6e6" d="m179.6193,33.54119l-102.78,0l0,80.42l129.71,0l0,-55.56c0,-13.71 -12.06,-24.86 -26.93,-24.86z"/>
    <path fill="#231f20" d="m206.5493,114.40119l-129.71,0a0.46,0.46 0 0 1 -0.45,-0.46l0,-80.4a0.45,0.45 0 0 1 0.45,-0.45l102.78,0c15.1,0 27.39,11.37 27.39,25.34l0,55.53a0.47,0.47 0 0 1 -0.46,0.44zm-129.25,-0.92l128.79,0l0,-55.08c0,-13.47 -11.87,-24.43 -26.47,-24.43l-102.32,0l0,79.51z"/>
    <path fill="#231f20" d="m103.7693,59.40119l0,54.53l-53.86,0l0,-54.53a25.71,25.71 0 0 1 6.82,-17.51a25.83,25.83 0 0 1 19.07,-8.38l2.3,0a25.91,25.91 0 0 1 24,16.65a23.23,23.23 0 0 1 0.94,3a0.07,0.07 0 0 1 0,0a1.29,1.29 0 0 1 0.07,0.31a25.37,25.37 0 0 1 0.66,5.93z"/>
    <path fill="#231f20" d="m103.7693,114.47119l-53.86,0a0.51,0.51 0 0 1 -0.5,-0.5l0,-54.57a26.4,26.4 0 0 1 26.39,-26.39l2.3,0a26.42,26.42 0 0 1 24.44,17a22.83,22.83 0 0 1 1,3l0,0l0,0a1.77,1.77 0 0 1 0.08,0.4a25.14,25.14 0 0 1 0.69,5.93l0,54.54a0.5,0.5 0 0 1 -0.54,0.59zm-53.36,-1l52.86,0l0,-54.07a24.8,24.8 0 0 0 -0.67,-5.77a1.16,1.16 0 0 0 0,-0.24l0,-0.11l0,0a24.71,24.71 0 0 0 -0.98,-2.88a25.44,25.44 0 0 0 -23.52,-16.33l-2.29,0a25.35,25.35 0 0 0 -25.4,25.33l0,54.07z"/>
    <path fill="#fff" d="m49.9193,113.96119l53.85,0a0,0 0 0 1 0,0l0,47.72a24.54,24.54 0 0 1 -24.54,24.54l-4.78,0a24.54,24.54 0 0 1 -24.54,-24.54l0,-47.72a0,0 0 0 1 0.01,0z"/>
    <path fill="#231f20" d="m79.2293,186.68119l-4.77,0a25,25 0 0 1 -25,-25l0,-47.72a0.47,0.47 0 0 1 0.46,-0.46l53.85,0a0.47,0.47 0 0 1 0.46,0.46l0,47.72a25,25 0 0 1 -25,25zm-28.86,-72.28l0,47.26a24.11,24.11 0 0 0 24.09,24.08l4.77,0a24.1,24.1 0 0 0 24.08,-24.08l0,-47.26l-52.94,0z"/>
    <path fill="#d1d3d4" d="m90.1493,157.69119l-26.61,0a0.5,0.5 0 0 1 -0.5,-0.5a0.5,0.5 0 0 1 0.5,-0.5l26.61,0a0.5,0.5 0 0 1 0.5,0.5a0.5,0.5 0 0 1 -0.5,0.5z"/>
    <circle fill="#fff" r="5.15" cy="68.85119" cx="132.6793"/>
    <path fill="#231f20" d="m132.6793,74.45119a5.61,5.61 0 1 1 5.6,-5.6a5.61,5.61 0 0 1 -5.6,5.6zm0,-10.29a4.69,4.69 0 1 0 4.69,4.69a4.69,4.69 0 0 0 -4.69,-4.69z"/>
    <path fill="#231f20" d="m132.6793,64.16119a0.47,0.47 0 0 1 -0.46,-0.46l0,-63.36a0.46,0.46 0 0 1 0.46,-0.45a0.45,0.45 0 0 1 0.45,0.45l0,63.36a0.46,0.46 0 0 1 -0.45,0.46z"/>
    <polygon fill="#526289" points="151.60930633544922,5.131187438964844 132.6792984008789,13.651187896728516 132.6792984008789,0.3411864936351776 151.60930633544922,0.3411864936351776 151.60930633544922,5.131187438964844 "/>
    <path fill="#231f20" d="m132.6793,14.15119a0.5,0.5 0 0 1 -0.27,-0.08a0.48,0.48 0 0 1 -0.23,-0.42l0,-13.31a0.5,0.5 0 0 1 0.5,-0.5l18.94,0a0.51,0.51 0 0 1 0.5,0.5l0,4.78a0.51,0.51 0 0 1 -0.3,0.46l-18.94,8.52a0.46,0.46 0 0 1 -0.2,0.05zm0.5,-13.31l0,12l17.93,-8.07l0,-4l-17.93,0.07zm18.44,4.28l0,0z"/>
    <rect fill="#fff" height="5.18" width="21.7" y="113.96119" x="121.7493"/>
    <path fill="#231f20" d="m143.4493,119.59119l-21.7,0a0.46,0.46 0 0 1 -0.46,-0.45l0,-5.18a0.47,0.47 0 0 1 0.46,-0.46l21.7,0a0.47,0.47 0 0 1 0.46,0.46l0,5.18a0.46,0.46 0 0 1 -0.46,0.45zm-21.24,-0.91l20.78,0l0,-4.28l-20.78,0l0,4.28z"/>
    <polyline fill="#fff" points="125.23929595947266,191.6311798095703 125.23929595947266,119.14118957519531 138.2992935180664,119.14118957519531 138.2992935180664,191.6311798095703 "/>
    <path fill="#231f20" d="m138.2993,192.09119a0.46,0.46 0 0 1 -0.45,-0.46l0,-72l-12.16,0l0,72a0.46,0.46 0 1 1 -0.91,0l0,-72.49a0.46,0.46 0 0 1 0.46,-0.46l13.06,0a0.46,0.46 0 0 1 0.46,0.46l0,72.49a0.46,0.46 0 0 1 -0.46,0.46z"/>
    <polygon fill="#231f20" points="125.23929595947266,130.461181640625 138.2992935180664,140.07118225097656 138.2992935180664,119.14118957519531 125.23929595947266,119.14118957519531 125.23929595947266,130.461181640625 "/>
    <path fill="#231f20" d="m138.2993,140.57119a0.5,0.5 0 0 1 -0.29,-0.09l-13.07,-9.61a0.51,0.51 0 0 1 -0.2,-0.4l0,-11.33a0.5,0.5 0 0 1 0.5,-0.5l13.06,0a0.5,0.5 0 0 1 0.5,0.5l0,20.93a0.49,0.49 0 0 1 -0.27,0.45a0.46,0.46 0 0 1 -0.23,0.05zm-12.56,-10.36l12.06,8.88l0,-19.45l-12.06,0l0,10.57z"/>
    <path fill="#ffaf4d" d="m81.4593,81.61119l-0.09,0l-1,-0.18a0.5,0.5 0 1 1 0.17,-1l1,0.17a0.51,0.51 0 0 1 0.4,0.59a0.49,0.49 0 0 1 -0.48,0.42z"/>
    <path fill="#ffaf4d" d="m13.4993,115.01119a0.48,0.48 0 0 1 -0.2,0a0.5,0.5 0 0 1 -0.26,-0.66c0.27,-0.62 0.56,-1.23 0.86,-1.84a0.49,0.49 0 0 1 0.67,-0.22a0.5,0.5 0 0 1 0.23,0.67c-0.3,0.59 -0.58,1.19 -0.84,1.79a0.5,0.5 0 0 1 -0.46,0.26zm1.8,-3.58a0.55,0.55 0 0 1 -0.25,-0.07a0.51,0.51 0 0 1 -0.19,-0.68c0.34,-0.59 0.69,-1.17 1.06,-1.74a0.5,0.5 0 0 1 0.84,0.54c-0.36,0.56 -0.7,1.12 -1,1.69a0.49,0.49 0 0 1 -0.46,0.23l0,0.03zm2.17,-3.38a0.55,0.55 0 0 1 -0.3,-0.09a0.51,0.51 0 0 1 -0.11,-0.7c0.4,-0.55 0.81,-1.09 1.24,-1.61a0.5,0.5 0 0 1 0.7,-0.08a0.5,0.5 0 0 1 0.08,0.7c-0.42,0.52 -0.82,1 -1.21,1.58a0.49,0.49 0 0 1 -0.4,0.2zm21.85,-0.07l0,0a6.37,6.37 0 0 1 -2.1,-0.53a0.5,0.5 0 0 1 0.4,-0.92a5.19,5.19 0 0 0 1.77,0.45a0.49,0.49 0 0 1 0.46,0.53a0.49,0.49 0 0 1 -0.53,0.47zm2,-0.24a0.5,0.5 0 0 1 -0.15,-1a3.87,3.87 0 0 0 1.51,-0.88a0.5,0.5 0 0 1 0.71,0a0.51,0.51 0 0 1 0,0.71a4.88,4.88 0 0 1 -1.92,1.12l-0.15,0.05zm-5.62,-1.3a0.46,0.46 0 0 1 -0.32,-0.11a8.9,8.9 0 0 1 -1.47,-1.53a0.51,0.51 0 0 1 0.1,-0.7a0.49,0.49 0 0 1 0.7,0.1a8.41,8.41 0 0 0 1.3,1.36a0.49,0.49 0 0 1 0.07,0.7a0.49,0.49 0 0 1 -0.4,0.14l0.02,0.04zm8.24,-1.45l-0.08,0a0.51,0.51 0 0 1 -0.42,-0.57a2.38,2.38 0 0 0 0,-0.46a3.88,3.88 0 0 0 -0.23,-1.27a0.5,0.5 0 1 1 1,-0.33a5.09,5.09 0 0 1 0.28,1.6a4.44,4.44 0 0 1 0,0.62a0.5,0.5 0 0 1 -0.57,0.41l0.02,0zm-23.93,-0.05a0.55,0.55 0 0 1 -0.34,-0.13a0.5,0.5 0 0 1 0,-0.71c0.45,-0.5 0.93,-1 1.41,-1.47a0.5,0.5 0 0 1 0.7,0.72c-0.47,0.46 -0.93,0.93 -1.37,1.42a0.5,0.5 0 0 1 -0.42,0.17l0.02,0zm13.29,-1.67a0.5,0.5 0 0 1 -0.46,-0.29a8.64,8.64 0 0 1 -0.63,-2a0.5,0.5 0 0 1 1,-0.18a7.46,7.46 0 0 0 0.55,1.8a0.5,0.5 0 0 1 -0.25,0.66a0.51,0.51 0 0 1 -0.23,0.01l0.02,0zm-10.41,-1.13a0.5,0.5 0 0 1 -0.32,-0.88c0.53,-0.44 1.07,-0.87 1.62,-1.25a0.49,0.49 0 0 1 0.69,0.12a0.5,0.5 0 0 1 -0.12,0.7c-0.52,0.36 -1,0.77 -1.55,1.2a0.48,0.48 0 0 1 -0.34,0.11l0.02,0zm19.88,-0.88a0.49,0.49 0 0 1 -0.4,-0.2a6.71,6.71 0 0 0 -1.22,-1.22l-0.11,-0.08a0.5,0.5 0 0 1 -0.1,-0.7a0.51,0.51 0 0 1 0.7,-0.11l0.12,0.09a7.54,7.54 0 0 1 1.4,1.42a0.49,0.49 0 0 1 -0.39,0.8zm-16.6,-1.42a0.49,0.49 0 0 1 -0.44,-0.26a0.51,0.51 0 0 1 0.19,-0.68a18.57,18.57 0 0 1 1.84,-0.92a0.5,0.5 0 0 1 0.4,0.91c-0.58,0.26 -1.17,0.55 -1.75,0.88a0.42,0.42 0 0 1 -0.26,0.07l0.02,0zm6.45,-0.44l0,0a0.51,0.51 0 0 1 -0.47,-0.53a11.48,11.48 0 0 1 0.35,-2.07a0.5,0.5 0 0 1 0.61,-0.36a0.52,0.52 0 0 1 0.36,0.36a0.49,0.49 0 0 1 0.35,-0.15l0.32,0a14.43,14.43 0 0 1 1.75,0.1a0.51,0.51 0 0 1 0.44,0.56a0.5,0.5 0 0 1 -0.56,0.43a14.57,14.57 0 0 0 -1.63,-0.09l-0.3,0a0.52,0.52 0 0 1 -0.46,-0.27a10.49,10.49 0 0 0 -0.23,1.56a0.5,0.5 0 0 1 -0.53,0.46zm7,-0.54a0.54,0.54 0 0 1 -0.22,0a10.67,10.67 0 0 0 -1.79,-0.68a0.5,0.5 0 0 1 0.27,-1a12.8,12.8 0 0 1 2,0.75a0.5,0.5 0 0 1 0.23,0.66a0.51,0.51 0 0 1 -0.49,0.23l0,0.04zm-9.79,-0.58a0.49,0.49 0 0 1 -0.48,-0.36a0.5,0.5 0 0 1 0.33,-0.62a14.05,14.05 0 0 1 2,-0.46a0.5,0.5 0 0 1 0.16,1a15.24,15.24 0 0 0 -1.89,0.44l-0.12,0zm3.79,-2.78a0.54,0.54 0 0 1 -0.21,0a0.5,0.5 0 0 1 -0.25,-0.66a14,14 0 0 1 1,-1.82a0.5,0.5 0 0 1 0.85,0.53a14.86,14.86 0 0 0 -0.92,1.7a0.49,0.49 0 0 1 -0.47,0.25zm2.11,-3.4a0.51,0.51 0 0 1 -0.31,-0.11a0.5,0.5 0 0 1 -0.08,-0.71c0.41,-0.52 0.87,-1 1.35,-1.54a0.5,0.5 0 0 1 0.72,0.7a19.38,19.38 0 0 0 -1.29,1.47a0.52,0.52 0 0 1 -0.41,0.19l0.02,0zm3.17,-3.07l-0.39,-0.32l-0.33,-0.38c0.56,-0.48 1.06,-0.89 1.57,-1.29a0.5,0.5 0 0 1 0.7,0.09a0.49,0.49 0 0 1 -0.09,0.7c-0.51,0.39 -1,0.78 -1.48,1.2l0.02,0zm2.79,-2.26a0.52,0.52 0 0 1 -0.42,-0.22a0.51,0.51 0 0 1 0.14,-0.7c0.56,-0.38 1.13,-0.74 1.72,-1.08a0.5,0.5 0 0 1 0.68,0.17a0.51,0.51 0 0 1 -0.17,0.69q-0.85,0.5 -1.68,1.05a0.46,0.46 0 0 1 -0.29,0.09l0.02,0zm3.45,-2a0.51,0.51 0 0 1 -0.45,-0.27a0.5,0.5 0 0 1 0.22,-0.67c0.61,-0.31 1.22,-0.6 1.84,-0.88a0.51,0.51 0 0 1 0.66,0.26a0.5,0.5 0 0 1 -0.26,0.66c-0.6,0.26 -1.2,0.55 -1.78,0.85a0.64,0.64 0 0 1 -0.25,0.01l0.02,0.04zm3.67,-1.62a0.5,0.5 0 0 1 -0.18,-1c0.63,-0.24 1.27,-0.46 1.92,-0.67a0.5,0.5 0 0 1 0.63,0.32a0.51,0.51 0 0 1 -0.33,0.63c-0.63,0.2 -1.25,0.42 -1.87,0.65a0.33,0.33 0 0 1 -0.19,0.03l0.02,0.04zm3.81,-1.24a0.49,0.49 0 0 1 -0.48,-0.36a0.51,0.51 0 0 1 0.35,-0.62c0.65,-0.17 1.31,-0.34 2,-0.48a0.5,0.5 0 0 1 0.6,0.38a0.49,0.49 0 0 1 -0.38,0.59c-0.65,0.15 -1.29,0.3 -1.93,0.48l-0.16,0.01zm25.9,-0.76l-0.08,0l-2,-0.28a0.49,0.49 0 0 1 -0.43,-0.55a0.51,0.51 0 0 1 0.56,-0.44l2,0.28a0.5,0.5 0 0 1 -0.07,1l0.02,-0.01zm-22,-0.11a0.5,0.5 0 0 1 -0.09,-1c0.66,-0.12 1.33,-0.22 2,-0.32a0.51,0.51 0 0 1 0.57,0.43a0.5,0.5 0 0 1 -0.43,0.56l-2,0.31l-0.05,0.02zm18,-0.41l-0.06,0l-2,-0.19a0.5,0.5 0 1 1 0.08,-1c0.67,0.05 1.34,0.11 2,0.19a0.5,0.5 0 0 1 0.44,0.55a0.49,0.49 0 0 1 -0.46,0.41l0,0.04zm-14,-0.14a0.5,0.5 0 0 1 -0.05,-1c0.67,-0.07 1.35,-0.13 2,-0.17a0.48,0.48 0 0 1 0.53,0.47a0.5,0.5 0 0 1 -0.46,0.53c-0.67,0 -1.33,0.1 -2,0.16l-0.02,0.01zm10,-0.18l0,0c-0.66,0 -1.33,-0.06 -2,-0.08a0.5,0.5 0 0 1 -0.49,-0.51a0.53,0.53 0 0 1 0.51,-0.49c0.68,0 1.35,0 2,0.08a0.51,0.51 0 0 1 0.48,0.53a0.5,0.5 0 0 1 -0.5,0.43l0,0.04zm-6,-0.08a0.5,0.5 0 0 1 0,-1l2,0l0,0a0.5,0.5 0 0 1 0.5,0.5a0.49,0.49 0 0 1 -0.49,0.5c-0.67,0 -1.33,0 -2,0l-0.01,0z"/>
    <path fill="#ffaf4d" d="m12.3893,117.87119l-0.16,0a0.5,0.5 0 0 1 -0.31,-0.63c0.11,-0.32 0.22,-0.64 0.34,-1a0.5,0.5 0 0 1 0.64,-0.29a0.5,0.5 0 0 1 0.3,0.64q-0.18,0.47 -0.33,0.93a0.5,0.5 0 0 1 -0.48,0.35z"/>
    <path fill="#ffaf4d" d="m68.8093,66.67119a0.51,0.51 0 0 1 -0.49,-0.41a0.5,0.5 0 0 1 0.4,-0.58a5.11,5.11 0 0 0 0.9,-0.28a0.5,0.5 0 0 1 0.65,0.28a0.51,0.51 0 0 1 -0.28,0.65a6.3,6.3 0 0 1 -1.05,0.3l-0.13,0.04z"/>
    <path fill="#ffaf4d" d="m66.8493,66.74119l0,0a12.19,12.19 0 0 1 -2,-0.39a0.5,0.5 0 0 1 0.26,-1a11.49,11.49 0 0 0 1.86,0.35a0.5,0.5 0 0 1 0.45,0.55a0.49,0.49 0 0 1 -0.57,0.49zm-3.83,-1a0.51,0.51 0 0 1 -0.17,0l-1.86,-0.67a0.5,0.5 0 1 1 0.34,-0.94l1.86,0.67a0.5,0.5 0 0 1 -0.17,1l0,-0.06zm-3.72,-1.34a0.51,0.51 0 0 1 -0.17,0l-1.86,-0.7a0.49,0.49 0 0 1 -0.29,-0.64a0.5,0.5 0 0 1 0.65,-0.29l1.85,0.69a0.5,0.5 0 0 1 0.29,0.64a0.48,0.48 0 0 1 -0.47,0.3zm-3.68,-1.39a0.41,0.41 0 0 1 -0.19,0c-0.61,-0.24 -1.23,-0.49 -1.84,-0.75a0.51,0.51 0 0 1 -0.27,-0.65a0.52,0.52 0 0 1 0.66,-0.27c0.6,0.26 1.21,0.5 1.82,0.74a0.5,0.5 0 0 1 0.28,0.65a0.49,0.49 0 0 1 -0.46,0.28zm-3.65,-1.53a0.45,0.45 0 0 1 -0.2,0l-1.81,-0.83a0.5,0.5 0 0 1 -0.24,-0.67a0.51,0.51 0 0 1 0.67,-0.24c0.59,0.29 1.18,0.56 1.78,0.82a0.5,0.5 0 0 1 -0.2,1l0,-0.08zm-3.57,-1.7a0.46,0.46 0 0 1 -0.23,-0.06c-0.59,-0.3 -1.18,-0.61 -1.76,-0.94a0.49,0.49 0 0 1 -0.19,-0.68a0.5,0.5 0 0 1 0.68,-0.19c0.57,0.32 1.15,0.63 1.73,0.93a0.49,0.49 0 0 1 0.21,0.67a0.5,0.5 0 0 1 -0.45,0.27l0.01,0zm-3.45,-1.93a0.59,0.59 0 0 1 -0.26,-0.07c-0.57,-0.35 -1.13,-0.71 -1.69,-1.08a0.5,0.5 0 0 1 -0.13,-0.7a0.49,0.49 0 0 1 0.69,-0.13q0.81,0.54 1.65,1a0.5,0.5 0 0 1 -0.26,0.93l0,0.05zm-3.33,-2.21a0.47,0.47 0 0 1 -0.3,-0.1l-0.6,-0.46c-0.33,-0.25 -0.66,-0.51 -1,-0.78a0.5,0.5 0 0 1 0.64,-0.77c0.32,0.26 0.63,0.52 1,0.76l0.59,0.45a0.5,0.5 0 0 1 -0.3,0.9l-0.03,0zm-3,-2.53a0.51,0.51 0 0 1 -0.34,-0.14c-0.49,-0.46 -1,-0.93 -1.42,-1.42a0.49,0.49 0 0 1 0,-0.7a0.5,0.5 0 0 1 0.71,0c0.44,0.47 0.9,0.93 1.38,1.37a0.5,0.5 0 0 1 0,0.71a0.49,0.49 0 0 1 -0.33,0.18zm-2.71,-2.88a0.48,0.48 0 0 1 -0.38,-0.18c-0.43,-0.51 -0.85,-1 -1.24,-1.58a0.51,0.51 0 0 1 0.11,-0.7a0.5,0.5 0 0 1 0.7,0.11c0.38,0.52 0.78,1 1.19,1.53a0.51,0.51 0 0 1 -0.06,0.71a0.54,0.54 0 0 1 -0.32,0.11zm-2.32,-3.2a0.51,0.51 0 0 1 -0.43,-0.23c-0.36,-0.57 -0.7,-1.16 -1,-1.75a0.5,0.5 0 0 1 0.89,-0.46c0.3,0.56 0.62,1.12 1,1.68a0.5,0.5 0 0 1 -0.16,0.69a0.48,0.48 0 0 1 -0.27,0.07l-0.03,0zm-1.85,-3.49a0.5,0.5 0 0 1 -0.46,-0.3q-0.41,-0.95 -0.72,-1.89a0.5,0.5 0 1 1 0.94,-0.32c0.2,0.6 0.44,1.21 0.7,1.81a0.51,0.51 0 0 1 -0.26,0.66a0.71,0.71 0 0 1 -0.2,0.04zm-1.26,-3.75a0.49,0.49 0 0 1 -0.48,-0.38a19.91,19.91 0 0 1 -0.38,-2a0.49,0.49 0 0 1 0.43,-0.56a0.5,0.5 0 0 1 0.56,0.42c0.09,0.63 0.21,1.27 0.36,1.9a0.51,0.51 0 0 1 -0.37,0.6l-0.12,0.02z"/>
    <path fill="#ffaf4d" d="m29.9393,35.86119a0.5,0.5 0 0 1 -0.5,-0.48c0,-0.34 0,-0.68 0,-1a0.47,0.47 0 0 1 0.5,-0.49a0.5,0.5 0 0 1 0.5,0.5c0,0.33 0,0.65 0,1a0.5,0.5 0 0 1 -0.48,0.52l-0.02,-0.05z"/>
    <path fill-opacity="0" fill="#ffaf4d" d="m31.0793,22.14119a19.28,19.28 0 0 0 5.07,-21.68s-7,0.18 -9.29,8.35s4.22,13.33 4.22,13.33z"/>
    <path fill="#ffaf4d" d="m31.0793,22.64119a0.45,0.45 0 0 1 -0.31,-0.11c-0.07,0 -6.71,-5.45 -4.4,-13.85s9.69,-8.72 9.77,-8.72a0.52,0.52 0 0 1 0.48,0.33a19.92,19.92 0 0 1 -5.23,22.24a0.45,0.45 0 0 1 -0.31,0.11zm4.73,-21.65c-1.42,0.16 -6.61,1.19 -8.47,8s2.52,11.39 3.74,12.53a18.58,18.58 0 0 0 4.73,-20.53z"/>
    <path fill="#ffaf4d" d="m31.9693,27.33119a0.51,0.51 0 0 1 -0.47,-0.32c-4,-10.78 3.87,-26.13 4.2,-26.78a0.51,0.51 0 0 1 0.68,-0.21a0.5,0.5 0 0 1 0.21,0.67c-0.08,0.16 -8,15.61 -4.15,26a0.49,0.49 0 0 1 -0.29,0.64a0.57,0.57 0 0 1 -0.18,0z"/>
    <path fill-opacity="0" fill="#ffaf4d" d="m18.8093,123.83119a19.29,19.29 0 0 1 5.07,21.68s-7,-0.17 -9.29,-8.35s4.22,-13.33 4.22,-13.33z"/>
    <path fill="#ffaf4d" d="m23.8793,146.01119l0,0c-0.07,0 -7.44,-0.28 -9.76,-8.72s4.32,-13.8 4.39,-13.85a0.5,0.5 0 0 1 0.63,0a19.94,19.94 0 0 1 5.22,22.25a0.5,0.5 0 0 1 -0.48,0.32zm-5.07,-21.52a12.47,12.47 0 0 0 -3.74,12.53c1.87,6.77 7.06,7.81 8.47,8a18.86,18.86 0 0 0 -4.73,-20.53z"/>
    <path fill="#ffaf4d" d="m23.8793,146.01119a0.5,0.5 0 0 1 -0.44,-0.27c-0.34,-0.65 -8.17,-16 -4.2,-26.78a0.5,0.5 0 0 1 0.64,-0.29a0.5,0.5 0 0 1 0.3,0.64c-3.82,10.37 4.07,25.82 4.15,26a0.5,0.5 0 0 1 -0.22,0.67a0.46,0.46 0 0 1 -0.23,0.03z"/>
    <path fill-opacity="0" fill="#ffaf4d" d="m22.7593,63.57119a19.29,19.29 0 0 1 -22.25,0.83s1.51,-6.87 10,-7.52s12.25,6.69 12.25,6.69z"/>
    <path fill="#ffaf4d" d="m11.0093,68.04119a20.39,20.39 0 0 1 -10.77,-3.21a0.49,0.49 0 0 1 -0.22,-0.53c0,-0.08 1.69,-7.25 10.42,-7.92s12.72,6.88 12.76,7a0.49,0.49 0 0 1 -0.12,0.61a20.42,20.42 0 0 1 -12.07,4.05zm-9.92,-3.87a18.57,18.57 0 0 0 21,-0.73a12.47,12.47 0 0 0 -11.57,-6.04c-7,0.51 -9.01,5.41 -9.43,6.77z"/>
    <path fill="#ffaf4d" d="m27.1893,65.84119a0.48,0.48 0 0 1 -0.26,-0.07c-9.44,-5.73 -26.11,-0.94 -26.28,-0.89a0.5,0.5 0 0 1 -0.28,-1c0.7,-0.2 17.25,-5 27.08,1a0.5,0.5 0 0 1 -0.26,0.92l0,0.04z"/>
   </g>
  </g>
 </g>

</svg>