 <svg  version="1.0" xmlns="http://www.w3.org/2000/svg"  width="283.000000pt" height="184.000000pt" viewBox="0 0 283.000000 184.000000" preserveAspectRatio="xMidYMid meet">  
  <g transform="translate(0.000000,184.000000) scale(0.100000,-0.100000)" fill="#050a30" stroke="none"> 
    <path d="M130 915 l0 -795 1320 0 1320 0 0 795 0 795 -1320 0 -1320 0 0 -795z m2468 629 c3 -28 -2 -34 -40 -56 -64 -36 -494 -279 -815 -459 -155 -88 -287 -159 -293 -159 -6 0 -102 51 -213 114 -232 130 -831 468 -894 504 -34 19 -43 29 -43 51 0 15 3 31 7 34 3 4 520 6 1147 5 l1141 -3 3 -31z m-2114 -300 c94 -53 263 -148 374 -212 112 -63 200 -118 195 -122 -10 -10 -713 -407 -736 -416 -16 -6 -17 27 -17 420 0 234 3 426 6 426 4 0 84 -43 178 -96z m2116 -330 c0 -377 -2 -425 -15 -420 -13 5 -219 119 -629 350 -59 34 -108 66 -108 71 0 5 76 51 168 104 93 52 259 145 369 207 110 62 203 113 208 114 4 0 7 -192 7 -426z m-1313 -123 c135 -77 193 -77 323 -1 38 22 72 40 76 40 4 0 57 -29 118 -64 61 -35 140 -79 176 -99 36 -20 189 -106 340 -191 273 -154 275 -155 275 -188 l0 -33 -1145 0 -1145 0 0 33 0 33 450 254 c248 140 453 254 457 254 3 1 37 -17 75 -38z"/>
  </g> 
</svg> 