<svg xmlns="http://www.w3.org/2000/svg" xmlns:xlink="http://www.w3.org/1999/xlink" width="500" zoomAndPan="magnify" viewBox="0 0 375 374.999991" height="500" preserveAspectRatio="xMidYMid meet" version="1.0"><defs><clipPath id="0af9b0a522"><path d="M 95 14.867188 L 280 14.867188 L 280 200 L 95 200 Z M 95 14.867188 " clip-rule="nonzero"/></clipPath><clipPath id="7f436b25da"><path d="M 68.226562 121 L 306.726562 121 L 306.726562 359.867188 L 68.226562 359.867188 Z M 68.226562 121 " clip-rule="nonzero"/></clipPath></defs><g clip-path="url(#0af9b0a522)"><path fill="#050a30" d="M 187.476562 199.722656 C 181.664062 199.722656 176.957031 195.015625 176.957031 189.207031 C 176.957031 183.402344 181.664062 178.695312 187.476562 178.695312 C 226.851562 178.695312 258.890625 146.679688 258.890625 107.324219 C 258.890625 67.96875 226.851562 35.945312 187.476562 35.945312 C 148.097656 35.945312 116.066406 67.964844 116.066406 107.320312 C 116.066406 113.125 111.355469 117.835938 105.546875 117.835938 C 99.734375 117.835938 95.027344 113.128906 95.027344 107.320312 C 95.027344 56.371094 136.496094 14.921875 187.476562 14.921875 C 238.457031 14.921875 279.929688 56.371094 279.929688 107.320312 C 279.929688 158.269531 238.453125 199.722656 187.476562 199.722656 Z M 187.476562 199.722656 " fill-opacity="1" fill-rule="nonzero"/></g><g clip-path="url(#7f436b25da)"><path fill="#fbca6f" d="M 306.691406 240.796875 C 306.691406 242.746094 306.644531 244.695312 306.546875 246.640625 C 306.453125 248.589844 306.308594 250.535156 306.117188 252.472656 C 305.925781 254.414062 305.6875 256.347656 305.402344 258.277344 C 305.113281 260.207031 304.78125 262.128906 304.398438 264.039062 C 304.019531 265.953125 303.59375 267.855469 303.117188 269.746094 C 302.644531 271.636719 302.125 273.515625 301.558594 275.382812 C 300.992188 277.25 300.378906 279.101562 299.722656 280.9375 C 299.066406 282.773438 298.363281 284.589844 297.617188 286.390625 C 296.871094 288.195312 296.078125 289.976562 295.246094 291.738281 C 294.410156 293.5 293.535156 295.242188 292.613281 296.960938 C 291.695312 298.683594 290.734375 300.378906 289.730469 302.050781 C 288.726562 303.722656 287.683594 305.371094 286.597656 306.992188 C 285.515625 308.613281 284.390625 310.207031 283.230469 311.773438 C 282.066406 313.339844 280.867188 314.875 279.628906 316.382812 C 278.390625 317.890625 277.117188 319.367188 275.808594 320.8125 C 274.5 322.257812 273.152344 323.667969 271.773438 325.046875 C 270.394531 326.425781 268.980469 327.769531 267.535156 329.078125 C 266.089844 330.390625 264.613281 331.664062 263.105469 332.898438 C 261.597656 334.136719 260.058594 335.335938 258.492188 336.496094 C 256.925781 337.660156 255.332031 338.78125 253.707031 339.863281 C 252.085938 340.949219 250.4375 341.992188 248.765625 342.992188 C 247.089844 343.996094 245.394531 344.957031 243.671875 345.875 C 241.953125 346.796875 240.210938 347.671875 238.445312 348.503906 C 236.683594 349.339844 234.898438 350.128906 233.097656 350.875 C 231.292969 351.621094 229.476562 352.324219 227.636719 352.980469 C 225.800781 353.636719 223.949219 354.25 222.082031 354.816406 C 220.214844 355.378906 218.335938 355.902344 216.441406 356.375 C 214.550781 356.847656 212.648438 357.277344 210.734375 357.65625 C 208.820312 358.035156 206.898438 358.371094 204.96875 358.65625 C 203.039062 358.941406 201.101562 359.179688 199.160156 359.371094 C 197.21875 359.5625 195.273438 359.707031 193.324219 359.800781 C 191.375 359.898438 189.425781 359.945312 187.476562 359.945312 C 185.523438 359.945312 183.574219 359.898438 181.625 359.800781 C 179.675781 359.707031 177.730469 359.5625 175.789062 359.371094 C 173.847656 359.179688 171.914062 358.941406 169.984375 358.65625 C 168.054688 358.371094 166.132812 358.035156 164.21875 357.65625 C 162.304688 357.277344 160.402344 356.847656 158.507812 356.375 C 156.617188 355.902344 154.734375 355.378906 152.867188 354.816406 C 151 354.25 149.148438 353.636719 147.3125 352.980469 C 145.476562 352.324219 143.65625 351.621094 141.851562 350.875 C 140.050781 350.128906 138.269531 349.339844 136.503906 348.503906 C 134.742188 347.671875 133 346.796875 131.277344 345.875 C 129.558594 344.957031 127.859375 343.996094 126.1875 342.992188 C 124.511719 341.992188 122.863281 340.949219 121.242188 339.863281 C 119.621094 338.78125 118.027344 337.660156 116.457031 336.496094 C 114.890625 335.335938 113.355469 334.136719 111.84375 332.898438 C 110.335938 331.664062 108.859375 330.390625 107.414062 329.078125 C 105.96875 327.769531 104.558594 326.425781 103.175781 325.046875 C 101.796875 323.667969 100.453125 322.257812 99.140625 320.8125 C 97.832031 319.367188 96.558594 317.890625 95.320312 316.382812 C 94.082031 314.875 92.882812 313.339844 91.71875 311.773438 C 90.558594 310.207031 89.433594 308.613281 88.351562 306.992188 C 87.265625 305.371094 86.222656 303.722656 85.21875 302.050781 C 84.21875 300.378906 83.257812 298.683594 82.335938 296.960938 C 81.417969 295.242188 80.539062 293.5 79.707031 291.738281 C 78.871094 289.976562 78.082031 288.195312 77.335938 286.390625 C 76.585938 284.589844 75.886719 282.773438 75.226562 280.9375 C 74.570312 279.101562 73.960938 277.25 73.394531 275.382812 C 72.828125 273.515625 72.304688 271.636719 71.832031 269.746094 C 71.359375 267.855469 70.929688 265.953125 70.550781 264.039062 C 70.167969 262.128906 69.835938 260.207031 69.550781 258.277344 C 69.265625 256.347656 69.023438 254.414062 68.832031 252.472656 C 68.640625 250.535156 68.5 248.589844 68.402344 246.640625 C 68.308594 244.695312 68.257812 242.746094 68.257812 240.796875 C 68.257812 238.84375 68.308594 236.894531 68.402344 234.949219 C 68.5 233 68.640625 231.058594 68.832031 229.117188 C 69.023438 227.175781 69.265625 225.242188 69.550781 223.3125 C 69.835938 221.382812 70.167969 219.460938 70.550781 217.550781 C 70.929688 215.636719 71.359375 213.734375 71.832031 211.84375 C 72.304688 209.953125 72.828125 208.074219 73.394531 206.207031 C 73.960938 204.339844 74.570312 202.492188 75.226562 200.65625 C 75.886719 198.820312 76.585938 197 77.335938 195.199219 C 78.082031 193.398438 78.871094 191.613281 79.707031 189.851562 C 80.539062 188.089844 81.417969 186.347656 82.335938 184.628906 C 83.257812 182.910156 84.21875 181.210938 85.21875 179.539062 C 86.222656 177.867188 87.265625 176.21875 88.351562 174.597656 C 89.433594 172.976562 90.558594 171.382812 91.71875 169.816406 C 92.882812 168.25 94.082031 166.714844 95.320312 165.207031 C 96.558594 163.699219 97.832031 162.222656 99.140625 160.777344 C 100.453125 159.335938 101.796875 157.921875 103.175781 156.542969 C 104.558594 155.164062 105.96875 153.820312 107.414062 152.511719 C 108.859375 151.203125 110.335938 149.929688 111.84375 148.691406 C 113.355469 147.453125 114.890625 146.253906 116.457031 145.09375 C 118.027344 143.929688 119.621094 142.808594 121.242188 141.726562 C 122.863281 140.640625 124.511719 139.597656 126.1875 138.597656 C 127.859375 137.59375 129.558594 136.632812 131.277344 135.714844 C 133 134.796875 134.742188 133.917969 136.503906 133.085938 C 138.269531 132.25 140.050781 131.460938 141.851562 130.714844 C 143.65625 129.96875 145.476562 129.265625 147.3125 128.609375 C 149.148438 127.953125 151 127.339844 152.867188 126.777344 C 154.734375 126.210938 156.617188 125.691406 158.507812 125.214844 C 160.402344 124.742188 162.304688 124.316406 164.21875 123.933594 C 166.132812 123.554688 168.054688 123.222656 169.984375 122.933594 C 171.914062 122.648438 173.847656 122.410156 175.789062 122.21875 C 177.730469 122.027344 179.675781 121.882812 181.625 121.789062 C 183.574219 121.691406 185.523438 121.644531 187.476562 121.644531 C 189.425781 121.644531 191.375 121.691406 193.324219 121.789062 C 195.273438 121.882812 197.21875 122.027344 199.160156 122.21875 C 201.101562 122.410156 203.039062 122.648438 204.96875 122.933594 C 206.898438 123.222656 208.820312 123.554688 210.734375 123.933594 C 212.648438 124.316406 214.550781 124.742188 216.441406 125.214844 C 218.335938 125.691406 220.214844 126.210938 222.082031 126.777344 C 223.949219 127.339844 225.800781 127.953125 227.636719 128.609375 C 229.476562 129.265625 231.292969 129.96875 233.097656 130.714844 C 234.898438 131.460938 236.683594 132.25 238.445312 133.085938 C 240.210938 133.917969 241.953125 134.796875 243.671875 135.714844 C 245.394531 136.632812 247.089844 137.59375 248.765625 138.597656 C 250.4375 139.597656 252.085938 140.640625 253.707031 141.726562 C 255.332031 142.808594 256.925781 143.929688 258.492188 145.09375 C 260.058594 146.253906 261.597656 147.453125 263.105469 148.691406 C 264.613281 149.929688 266.089844 151.203125 267.535156 152.511719 C 268.980469 153.820312 270.394531 155.164062 271.773438 156.542969 C 273.152344 157.921875 274.5 159.335938 275.808594 160.777344 C 277.117188 162.222656 278.390625 163.699219 279.628906 165.207031 C 280.867188 166.714844 282.066406 168.25 283.230469 169.816406 C 284.390625 171.382812 285.515625 172.976562 286.597656 174.597656 C 287.683594 176.21875 288.726562 177.867188 289.730469 179.539062 C 290.734375 181.210938 291.695312 182.910156 292.613281 184.628906 C 293.535156 186.347656 294.410156 188.089844 295.246094 189.851562 C 296.078125 191.613281 296.871094 193.398438 297.617188 195.199219 C 298.363281 197 299.066406 198.820312 299.722656 200.65625 C 300.378906 202.492188 300.992188 204.339844 301.558594 206.207031 C 302.125 208.074219 302.644531 209.953125 303.117188 211.84375 C 303.59375 213.734375 304.019531 215.636719 304.398438 217.550781 C 304.78125 219.460938 305.113281 221.382812 305.402344 223.3125 C 305.6875 225.242188 305.925781 227.175781 306.117188 229.117188 C 306.308594 231.058594 306.453125 233 306.546875 234.949219 C 306.644531 236.894531 306.691406 238.84375 306.691406 240.796875 Z M 306.691406 240.796875 " fill-opacity="1" fill-rule="nonzero"/></g><path fill="#f8b858" d="M 276.886719 240.796875 C 276.886719 242.257812 276.851562 243.71875 276.777344 245.179688 C 276.707031 246.640625 276.597656 248.101562 276.457031 249.554688 C 276.3125 251.011719 276.132812 252.460938 275.917969 253.910156 C 275.703125 255.355469 275.453125 256.796875 275.167969 258.230469 C 274.882812 259.664062 274.5625 261.089844 274.207031 262.507812 C 273.851562 263.929688 273.460938 265.335938 273.035156 266.738281 C 272.613281 268.136719 272.152344 269.523438 271.660156 270.902344 C 271.167969 272.277344 270.640625 273.640625 270.082031 274.992188 C 269.519531 276.34375 268.925781 277.679688 268.300781 279.003906 C 267.675781 280.324219 267.019531 281.632812 266.328125 282.921875 C 265.640625 284.210938 264.917969 285.484375 264.164062 286.738281 C 263.414062 287.992188 262.632812 289.226562 261.816406 290.441406 C 261.003906 291.660156 260.164062 292.855469 259.292969 294.027344 C 258.417969 295.203125 257.519531 296.355469 256.589844 297.484375 C 255.664062 298.617188 254.707031 299.722656 253.726562 300.808594 C 252.742188 301.890625 251.734375 302.949219 250.699219 303.984375 C 249.664062 305.019531 248.605469 306.027344 247.519531 307.007812 C 246.4375 307.992188 245.328125 308.945312 244.199219 309.875 C 243.066406 310.800781 241.914062 311.699219 240.738281 312.570312 C 239.5625 313.441406 238.367188 314.285156 237.148438 315.097656 C 235.933594 315.910156 234.699219 316.691406 233.441406 317.445312 C 232.1875 318.195312 230.914062 318.917969 229.625 319.605469 C 228.332031 320.296875 227.027344 320.953125 225.703125 321.578125 C 224.382812 322.203125 223.042969 322.796875 221.691406 323.355469 C 220.339844 323.914062 218.976562 324.441406 217.597656 324.933594 C 216.21875 325.425781 214.832031 325.886719 213.429688 326.308594 C 212.03125 326.734375 210.621094 327.125 209.203125 327.480469 C 207.78125 327.835938 206.355469 328.15625 204.917969 328.441406 C 203.484375 328.726562 202.042969 328.976562 200.597656 329.191406 C 199.148438 329.40625 197.695312 329.582031 196.242188 329.726562 C 194.785156 329.871094 193.324219 329.976562 191.863281 330.050781 C 190.402344 330.121094 188.941406 330.15625 187.476562 330.15625 C 186.011719 330.15625 184.550781 330.121094 183.089844 330.050781 C 181.628906 329.976562 180.167969 329.871094 178.714844 329.726562 C 177.257812 329.582031 175.804688 329.40625 174.359375 329.191406 C 172.910156 328.976562 171.46875 328.726562 170.035156 328.441406 C 168.597656 328.15625 167.171875 327.835938 165.75 327.480469 C 164.332031 327.125 162.921875 326.734375 161.523438 326.308594 C 160.121094 325.886719 158.734375 325.425781 157.355469 324.933594 C 155.976562 324.441406 154.613281 323.914062 153.261719 323.355469 C 151.910156 322.796875 150.570312 322.203125 149.25 321.578125 C 147.925781 320.953125 146.621094 320.296875 145.328125 319.605469 C 144.039062 318.917969 142.765625 318.195312 141.511719 317.445312 C 140.253906 316.691406 139.019531 315.910156 137.804688 315.097656 C 136.585938 314.285156 135.390625 313.441406 134.214844 312.570312 C 133.039062 311.699219 131.886719 310.800781 130.753906 309.875 C 129.625 308.945312 128.515625 307.992188 127.433594 307.007812 C 126.347656 306.027344 125.289062 305.019531 124.253906 303.984375 C 123.21875 302.949219 122.210938 301.890625 121.226562 300.808594 C 120.246094 299.722656 119.289062 298.617188 118.363281 297.484375 C 117.433594 296.355469 116.535156 295.203125 115.660156 294.027344 C 114.789062 292.855469 113.949219 291.660156 113.136719 290.441406 C 112.320312 289.226562 111.539062 287.992188 110.789062 286.738281 C 110.035156 285.484375 109.3125 284.210938 108.625 282.921875 C 107.933594 281.632812 107.277344 280.324219 106.652344 279.003906 C 106.027344 277.679688 105.433594 276.34375 104.871094 274.992188 C 104.3125 273.640625 103.785156 272.277344 103.292969 270.902344 C 102.800781 269.523438 102.339844 268.136719 101.917969 266.738281 C 101.492188 265.335938 101.101562 263.929688 100.746094 262.507812 C 100.390625 261.089844 100.070312 259.664062 99.785156 258.230469 C 99.5 256.796875 99.25 255.355469 99.035156 253.910156 C 98.820312 252.460938 98.640625 251.011719 98.496094 249.554688 C 98.355469 248.101562 98.246094 246.640625 98.175781 245.179688 C 98.101562 243.71875 98.066406 242.257812 98.066406 240.796875 C 98.066406 239.335938 98.101562 237.871094 98.175781 236.410156 C 98.246094 234.953125 98.355469 233.492188 98.496094 232.039062 C 98.640625 230.582031 98.820312 229.132812 99.035156 227.683594 C 99.25 226.238281 99.5 224.796875 99.785156 223.363281 C 100.070312 221.929688 100.390625 220.503906 100.746094 219.082031 C 101.101562 217.664062 101.492188 216.257812 101.917969 214.855469 C 102.339844 213.457031 102.800781 212.070312 103.292969 210.691406 C 103.785156 209.316406 104.3125 207.949219 104.871094 206.601562 C 105.433594 205.25 106.027344 203.910156 106.652344 202.589844 C 107.277344 201.269531 107.933594 199.960938 108.625 198.671875 C 109.3125 197.382812 110.035156 196.109375 110.789062 194.855469 C 111.539062 193.601562 112.320312 192.367188 113.136719 191.152344 C 113.949219 189.933594 114.789062 188.738281 115.660156 187.566406 C 116.535156 186.390625 117.433594 185.238281 118.363281 184.105469 C 119.289062 182.976562 120.246094 181.871094 121.226562 180.785156 C 122.210938 179.703125 123.21875 178.644531 124.253906 177.609375 C 125.289062 176.574219 126.347656 175.566406 127.433594 174.585938 C 128.515625 173.601562 129.625 172.648438 130.753906 171.71875 C 131.886719 170.792969 133.039062 169.894531 134.214844 169.023438 C 135.390625 168.148438 136.585938 167.308594 137.804688 166.496094 C 139.019531 165.683594 140.253906 164.902344 141.511719 164.148438 C 142.765625 163.398438 144.039062 162.675781 145.328125 161.988281 C 146.621094 161.296875 147.925781 160.640625 149.25 160.015625 C 150.570312 159.390625 151.910156 158.796875 153.261719 158.238281 C 154.613281 157.679688 155.976562 157.152344 157.355469 156.660156 C 158.734375 156.167969 160.121094 155.707031 161.523438 155.285156 C 162.921875 154.859375 164.332031 154.46875 165.75 154.113281 C 167.171875 153.757812 168.597656 153.4375 170.035156 153.152344 C 171.46875 152.867188 172.910156 152.617188 174.359375 152.402344 C 175.804688 152.1875 177.257812 152.007812 178.714844 151.867188 C 180.167969 151.722656 181.628906 151.617188 183.089844 151.542969 C 184.550781 151.472656 186.011719 151.4375 187.476562 151.4375 C 188.941406 151.4375 190.402344 151.472656 191.863281 151.542969 C 193.324219 151.617188 194.785156 151.722656 196.242188 151.867188 C 197.695312 152.007812 199.148438 152.1875 200.597656 152.402344 C 202.042969 152.617188 203.484375 152.867188 204.917969 153.152344 C 206.355469 153.4375 207.78125 153.757812 209.203125 154.113281 C 210.621094 154.46875 212.03125 154.859375 213.429688 155.285156 C 214.832031 155.707031 216.21875 156.167969 217.597656 156.660156 C 218.976562 157.152344 220.339844 157.679688 221.691406 158.238281 C 223.042969 158.796875 224.382812 159.390625 225.703125 160.015625 C 227.027344 160.640625 228.332031 161.296875 229.625 161.988281 C 230.914062 162.675781 232.1875 163.398438 233.441406 164.148438 C 234.699219 164.902344 235.933594 165.683594 237.148438 166.496094 C 238.367188 167.308594 239.5625 168.148438 240.738281 169.023438 C 241.914062 169.894531 243.066406 170.792969 244.199219 171.71875 C 245.328125 172.648438 246.4375 173.601562 247.519531 174.585938 C 248.605469 175.566406 249.664062 176.574219 250.699219 177.609375 C 251.734375 178.644531 252.742188 179.703125 253.726562 180.785156 C 254.707031 181.871094 255.664062 182.976562 256.589844 184.105469 C 257.519531 185.238281 258.417969 186.390625 259.292969 187.566406 C 260.164062 188.738281 261.003906 189.933594 261.816406 191.152344 C 262.632812 192.367188 263.414062 193.601562 264.164062 194.855469 C 264.917969 196.109375 265.640625 197.382812 266.328125 198.671875 C 267.019531 199.960938 267.675781 201.269531 268.300781 202.589844 C 268.925781 203.910156 269.519531 205.25 270.082031 206.601562 C 270.640625 207.949219 271.167969 209.316406 271.660156 210.691406 C 272.152344 212.070312 272.613281 213.457031 273.035156 214.855469 C 273.460938 216.257812 273.851562 217.664062 274.207031 219.082031 C 274.5625 220.503906 274.882812 221.929688 275.167969 223.363281 C 275.453125 224.796875 275.703125 226.238281 275.917969 227.683594 C 276.132812 229.132812 276.3125 230.582031 276.457031 232.039062 C 276.597656 233.492188 276.707031 234.953125 276.777344 236.410156 C 276.851562 237.871094 276.886719 239.335938 276.886719 240.796875 Z M 276.886719 240.796875 " fill-opacity="1" fill-rule="nonzero"/><path fill="#ffffff" d="M 212.652344 222.746094 C 212.652344 208.851562 201.382812 197.582031 187.476562 197.582031 C 173.570312 197.582031 162.300781 208.851562 162.300781 222.746094 C 162.300781 232.9375 168.375 241.691406 177.09375 245.644531 C 176.761719 246.714844 176.539062 247.828125 176.539062 249 L 176.539062 272.519531 C 176.539062 278.867188 181.683594 284.007812 188.023438 284.007812 C 194.371094 284.007812 199.515625 278.867188 199.515625 272.519531 L 199.515625 249 C 199.515625 247.65625 199.242188 246.386719 198.816406 245.183594 C 207.019531 241.039062 212.652344 232.558594 212.652344 222.746094 Z M 212.652344 222.746094 " fill-opacity="1" fill-rule="nonzero"/></svg>