 <svg  version="1.0" xmlns="http://www.w3.org/2000/svg"  width="248.000000pt" height="279.000000pt" viewBox="0 0 248.000000 279.000000"  preserveAspectRatio="xMidYMid meet">  
 <g transform="translate(0.000000,279.000000) scale(0.100000,-0.100000)" fill="#050a30" stroke="none"> 
 <path d="M1165 2531 c-22 -11 -236 -131 -475 -268 -417 -239 -435 -251 -458 -294 l-23 -44 6 -540 c7 -577 9 -597 58 -642 28 -26 890 -551 937 -570 69 -30 90 -20 550 242 239 136 450 259 469 273 65 48 64 36 56 642 -8 600 -8 603 -71 647 -16 11 -231 143 -478 293 -489 297 -493 299 -571 261z m109 -170 c217 -130 734 -446 744 -455 9 -9 -75 -61 -378 -235 l-390 -222 -102 64 c-324 202 -636 395 -655 406 -13 6 -23 15 -23 19 0 4 106 67 236 141 129 74 299 171 377 217 78 45 146 83 151 83 5 1 23 -7 40 -18z m-684 -692 c107 -67 281 -175 386 -240 l192 -120 6 -162 c14 -390 18 -767 7 -767 -8 0 -481 284 -748 449 l-53 33 0 291 c0 161 -3 370 -7 465 -5 147 -4 172 8 172 8 0 102 -54 209 -121z m1534 -385 c6 -374 5 -459 -6 -469 -19 -17 -759 -438 -763 -434 -2 2 -8 209 -13 459 -7 340 -7 458 2 467 16 16 749 433 762 433 8 0 13 -135 18 -456z"/> 
 </g> 
 </svg> 