<svg width="390" height="686" viewBox="0 0 390 686" fill="none" xmlns="http://www.w3.org/2000/svg">
<path d="M124.48 658.48C71.0747 658.48 13.5672 644.977 -22.1105 654.195C-20.7776 163.272 -21.5571 28.8327 -22.114 23H405.961V436.682C357.131 435.07 344.809 469.412 296.156 541.391C282.965 560.906 199.17 636.963 124.48 658.48Z" fill="#050A30"/>
<path d="M-55 685C-40.349 629.651 46.4449 658.48 124.48 658.48C199.17 636.963 282.965 560.906 296.156 541.391C361.094 445.319 361.309 416.297 470 450.322M-22.114 655.477C-20.7763 163.506 -21.5566 28.8377 -22.114 23H405.961V441.316" stroke="#050A30"/>
<path d="M124.48 401.89C71.0747 401.89 13.5672 391.65 -22.1105 398.64C-20.7776 26.3694 -21.5571 -75.577 -22.114 -80H405.961V233.698C357.131 232.476 344.809 258.518 296.156 313.1C282.965 327.898 199.17 385.573 124.48 401.89Z" fill="#526289"/>
<path d="M-55 422C-40.349 380.028 46.4449 401.89 124.48 401.89C199.17 385.573 282.965 327.899 296.156 313.1C361.094 240.248 361.309 218.24 470 244.042M-22.114 399.613C-20.7763 26.5469 -21.5566 -75.5732 -22.114 -80H405.961V237.212" stroke="#050A30"/>
</svg>
