<svg width="1051" height="704" xmlns="http://www.w3.org/2000/svg" class="illustration styles_illustrationTablet__1DWOa">
 <g id="Layer_1">
  <title>Layer 1</title>
  <g>
   <path fill="#e5e5e5" transform="translate(-74.5691 -97.8236)" d="m1125.50003,471.99992c0,142.47 -90.2998,263.86 -216.77978,310.05a326.34413,326.34413 0 0 1 -59.32032,15.57a332.22787,332.22787 0 0 1 -165.71972,-15.05c-127.28028,-45.81 -218.24024,-167.61 -218.18018,-310.64c0,-182.18 147.75,-329.93 330,-329.93a328.56355,328.56355 0 0 1 192.01026,61.6c83.54974,59.86002 137.98974,157.76999 137.98974,268.4z"/>
   <path fill="#050a30" d="m834.15115,684.22633a326.34413,326.34413 0 0 1 -59.32032,15.57a332.22787,332.22787 0 0 1 -165.71972,-15.05l15.23974,-61.15l0.91992,-3.67l31.1001,0.12l156.24024,0.56l2,5.91l19.54004,57.71z"/>
   <rect x="0.06903" y="-0.17645" fill="#e6e6e6" height="324.35501" width="286.651" data-name="Rectangle 25" id="svg_21"/>
   <rect fill="#fff" height="310.63199" width="275.92801" y="6.68556" x="5.18003" data-name="Rectangle 25-2" id="svg_20"/>
   <circle fill="#e6e6e6" r="15.467" cy="290.80556" cx="143.39503" data-name="Ellipse 116" id="svg_19"/>
   <rect fill="#e6e6e6" height="9.088" width="88.837" y="116.64256" x="51.94503" data-name="Rectangle 31" id="svg_18"/>
   <rect fill="#ffaf4d" height="9.088" width="134.07899" y="143.87554" x="51.94503" data-name="Rectangle 32" id="svg_17"/>
   <rect fill="#e6e6e6" height="9.088" width="120.918" y="171.27957" x="51.94503" data-name="Rectangle 38" id="svg_16"/>
   <rect fill="#ffaf4d" height="9.088" width="186.72301" y="197.95956" x="51.94503" data-name="Rectangle 39" id="svg_15"/>
   <rect fill="#e6e6e6" height="9.088" width="152.175" y="223.36856" x="53.88602" data-name="Rectangle 40" id="svg_14"/>
   <g data-name="Group 52" id="svg_4">
    <path fill="#9f616a" transform="translate(-74.5691 -97.8236)" d="m482.24708,625.43793a29.75626,29.75626 0 0 1 2.991,3.6l140.109,-3.428l16.345,-29.868l48.3,18.776l-23.8,55.687a22.609,22.609 0 0 1 -23.5,13.561l-158.3,-19.123a29.665,29.665 0 1 1 -2.15,-39.211l0.005,0.006z" data-name="Path 846" id="svg_13"/>
    <path fill="#526289" transform="translate(-74.5691 -97.8236)" d="m670.8271,454.88812l65.569,-21.489l19.258,-26.411l93.716,5.546l13.759,30.82l49.972,23.613l-7.68,142.624l-13.138,133.477c-67.558,-34.983 -193.63907,-8.31221 -194.74307,-7.87819l-26.71293,-280.30181z" data-name="Path 852" id="svg_12"/>
    <path fill="#526289" transform="translate(-74.5691 -97.8236)" d="m684.84403,647.93762l-66.694,-26.684l0.284,-1.187c0.286,-1.2 28.672,-119.817 32.441,-138.879c3.926,-19.859 18.271,-25.35 18.88,-25.573l0.445,-0.164l26.394,8.034l11.592,91.081l-23.342,93.372z" data-name="Path 853" id="svg_11"/>
    <path fill="#9f616a" transform="translate(-74.5691 -97.8236)" d="m828.84913,737.20074a29.72053,29.72053 0 0 1 4.677,0.258l92.747,-105.072l-10.788,-32.286l46.608,-22.652l24.655,55.313a22.608,22.608 0 0 1 -6.034,26.453l-121.65,103.073a29.6649,29.6649 0 1 1 -30.215,-25.087z" data-name="Path 855" id="svg_10"/>
    <path fill="#526289" transform="translate(-74.5691 -97.8236)" d="m918.87003,642.61468l-38.689,-91.006l15.09,-63.391l16.259,-20.541a9.36609,9.36609 0 0 1 7.524,0.07c6,2.413 11.1,9.81 15.177,21.984l36.259,103.279l-51.62,49.605z" data-name="Path 856" id="svg_9"/>
    <path fill="#050a30" d="m643.57198,275.44217l0,-68.61a91.938,91.938 0 1 1 183.875,-0.60916q0.001,0.30455 0,0.60916l0,68.61a12.364,12.364 0 0 1 -12.35,12.35l-159.175,0a12.364,12.364 0 0 1 -12.35,-12.35z" data-name="Path 857" id="svg_8"/>
    <circle fill="#9f616a" r="67.405" cy="218.78863" cx="716.61697" data-name="Ellipse 148" id="svg_7"/>
    <path fill="#050a30" d="m621.82198,212.32113a72.809,72.809 0 0 1 72.727,-72.727l13.723,0a72.808,72.808 0 0 1 72.726,72.727l0,1.372l-29,0l-9.891,-27.7l-1.978,27.7l-14.986,0l-4.99,-13.974l-1,13.974l-97.331,0l0,-1.372z" data-name="Path 858" id="svg_6"/>
    <path fill="#050a30" d="m709.98398,295.50797a12.16709,12.16709 0 0 1 -0.967,-12.918c14.541,-27.658 34.9,-78.765 7.877,-110.283l-1.938,-2.262l78.456,0l0,117.79l-71.271,12.575a12.60771,12.60771 0 0 1 -2.185,0.193a12.3,12.3 0 0 1 -9.967,-5.092l-0.005,-0.003z" data-name="Path 859" id="svg_5"/>
   </g>
   <g data-name="Group 51" id="svg_2">
    <path fill="#526289" transform="translate(-74.5691 -97.8236)" d="m217.7148,122.90922a32.89091,32.89091 0 1 0 32.88923,32.89263l0,-0.00172a32.89088,32.89088 0 0 0 -32.89091,-32.89091l0.00168,0zm0,9.86638a9.8664,9.8664 0 1 1 -9.86636,9.86644l0,0a9.86643,9.86643 0 0 1 9.86636,-9.86644zm0,47.50128a23.961,23.961 0 0 1 -19.73454,-10.53178c0.15847,-6.57819 13.15636,-10.1991 19.73454,-10.1991s19.57608,3.62091 19.73455,10.1991a23.99974,23.99974 0 0 1 -19.73455,10.53178z" data-name="Path 341" id="svg_3"/>
   </g>
   <path fill="#050a30" d="m143.52804,296.73455c13.55,-24.831 46.01,-40.556 72.563,-26.382c11.952,6.379 21.453,17.663 24.469,31c3.5,15.493 -3.875,30.266 -11.488,43.282c-4.132,7.065 -8.66,13.986 -12.08,21.438c-3.541,7.717 -6.072,16.636 -3.406,25.031c2.4,7.563 8.418,13.064 15.008,17.107a111.82826,111.82826 0 0 0 23.061,10.3a135.74266,135.74266 0 0 0 51.485,6.661a140.80273,140.80273 0 0 0 25.66,-4.148c8.943,-2.28 17.719,-5.17 26.677,-7.4c14.956,-3.715 32.009,-5.562 46.191,1.9c13.778,7.252 19.944,22.419 21.851,37.174c3.522,27.246 -7.281,55.52 -26.786,74.6c-9.358,9.154 -21.134,16.717 -33.96,19.811c-11.191,2.7 -25.561,2.527 -34.467,-5.839c-9.938,-9.337 -7.6,-24.309 0.293,-34.16c10.075,-12.569 27.143,-15.588 42.374,-15.894c17.326,-0.348 34.636,2.232 51.952,0.628a79.799,79.799 0 0 0 24.568,-5.926a62.2576,62.2576 0 0 0 18.515,-12.529c10.69,-10.386 17.9,-24.222 21.485,-38.608c4.317,-17.3 3.376,-35.482 0.025,-52.859a238.36078,238.36078 0 0 0 -6.888,-26.507c-1.157,-3.67 -6.952,-2.1 -5.786,1.595c10.32,32.724 16.074,70.563 -3.865,100.946a60.10728,60.10728 0 0 1 -35.943,25.873c-17.257,4.289 -35.365,2.169 -52.909,1.531c-16.682,-0.607 -35,0.048 -49.3,9.764c-11.731,7.969 -19.936,23.127 -16.39,37.437c3.419,13.8 16.681,20.8 29.945,21.878c13.917,1.134 27.612,-3.537 39.3,-10.841c24.313,-15.193 40.479,-41.913 43.862,-70.242c1.763,-14.761 -0.031,-30.661 -6.725,-44.059a43.13316,43.13316 0 0 0 -15.847,-17.661c-6.81,-4.175 -14.676,-6.23 -22.576,-6.957c-17.948,-1.653 -35.192,4.509 -52.218,9.223a144.79836,144.79836 0 0 1 -26.628,5.083a132.98246,132.98246 0 0 1 -26.272,-0.428a129.36478,129.36478 0 0 1 -25.457,-5.65a101.89269,101.89269 0 0 1 -23.108,-10.447c-6.385,-4.083 -11.907,-9.931 -12.221,-17.9c-0.341,-8.641 4.016,-16.724 8.16,-24.009c8.187,-14.391 18.3,-28.467 20.435,-45.314c1.87,-14.737 -4.06,-29.262 -14.3,-39.773a53.771,53.771 0 0 0 -39.737,-16.485c-15.193,0.435 -29.74,7.042 -40.915,17.189a67.358,67.358 0 0 0 -13.8,17.53c-1.851,3.391 3.328,6.422 5.181,3.028l0.012,0.009z" data-name="Path 842" id="svg_1"/>
  </g>
 </g>

</svg>